<?xml version="1.0" encoding="UTF-8"?>
<svg version="1.1" xmlns="http://www.w3.org/2000/svg" width="50" height="50">
<path d="M0 0 C15.84 0 31.68 0 48 0 C48 13.86 48 27.72 48 42 C32.16 42 16.32 42 0 42 C0 28.14 0 14.28 0 0 Z M2 2 C2 2.99 2 3.98 2 5 C2.99 5 3.98 5 5 5 C5 4.01 5 3.02 5 2 C4.01 2 3.02 2 2 2 Z M7 2 C7 2.99 7 3.98 7 5 C8.32 5 9.64 5 11 5 C11 4.01 11 3.02 11 2 C9.68 2 8.36 2 7 2 Z M13 2 C13 2.99 13 3.98 13 5 C14.32 5 15.64 5 17 5 C17 4.01 17 3.02 17 2 C15.68 2 14.36 2 13 2 Z M19 2 C19 2.99 19 3.98 19 5 C20.32 5 21.64 5 23 5 C23 4.01 23 3.02 23 2 C21.68 2 20.36 2 19 2 Z M25 2 C25 2.99 25 3.98 25 5 C26.32 5 27.64 5 29 5 C29 4.01 29 3.02 29 2 C27.68 2 26.36 2 25 2 Z M31 2 C31 2.99 31 3.98 31 5 C32.32 5 33.64 5 35 5 C35 4.01 35 3.02 35 2 C33.68 2 32.36 2 31 2 Z M37 2 C37 2.99 37 3.98 37 5 C38.32 5 39.64 5 41 5 C41 4.01 41 3.02 41 2 C39.68 2 38.36 2 37 2 Z M43 2 C43 2.99 43 3.98 43 5 C43.99 5 44.98 5 46 5 C46 4.01 46 3.02 46 2 C45.01 2 44.02 2 43 2 Z M20 16 C20 19.3 20 22.6 20 26 C22.64 24.68 25.28 23.36 28 22 C28 21.34 28 20.68 28 20 C25.36 18.68 22.72 17.36 20 16 Z M2 37 C2 37.99 2 38.98 2 40 C2.99 40 3.98 40 5 40 C5 39.01 5 38.02 5 37 C4.01 37 3.02 37 2 37 Z M7 37 C7 37.99 7 38.98 7 40 C8.32 40 9.64 40 11 40 C11 39.01 11 38.02 11 37 C9.68 37 8.36 37 7 37 Z M13 37 C13 37.99 13 38.98 13 40 C14.32 40 15.64 40 17 40 C17 39.01 17 38.02 17 37 C15.68 37 14.36 37 13 37 Z M19 37 C19 37.99 19 38.98 19 40 C20.32 40 21.64 40 23 40 C23 39.01 23 38.02 23 37 C21.68 37 20.36 37 19 37 Z M25 37 C25 37.99 25 38.98 25 40 C26.32 40 27.64 40 29 40 C29 39.01 29 38.02 29 37 C27.68 37 26.36 37 25 37 Z M31 37 C31 37.99 31 38.98 31 40 C32.32 40 33.64 40 35 40 C35 39.01 35 38.02 35 37 C33.68 37 32.36 37 31 37 Z M37 37 C37 37.99 37 38.98 37 40 C38.32 40 39.64 40 41 40 C41 39.01 41 38.02 41 37 C39.68 37 38.36 37 37 37 Z M43 37 C43 37.99 43 38.98 43 40 C43.99 40 44.98 40 46 40 C46 39.01 46 38.02 46 37 C45.01 37 44.02 37 43 37 Z " fill="#FCC318" transform="translate(1,4)"/>
</svg>
